Coordinates
version=1
nRows=9
nColumns=63
inDegrees=yes

Units are S.I. units (second, meters, Newtons, ...)
If the header above contains a line with 'inDegrees', this indicates whether rotational values are in degrees (yes) or radians (no).

endheader
time	pelvis_tilt	pelvis_list	pelvis_rotation	pelvis_tx	pelvis_ty	pelvis_tz	hip_flexion_r	hip_adduction_r	hip_rotation_r	knee_angle_r	knee_angle_r_beta	ankle_angle_r	subtalar_angle_r	mtp_angle_r	hip_flexion_l	hip_adduction_l	hip_rotation_l	knee_angle_l	knee_angle_l_beta	ankle_angle_l	subtalar_angle_l	mtp_angle_l	L5_S1_Flex_Ext	L5_S1_Lat_Bending	L5_S1_axial_rotation	L4_L5_Flex_Ext	L4_L5_Lat_Bending	L4_L5_axial_rotation	L3_L4_Flex_Ext	L3_L4_Lat_Bending	L3_L4_axial_rotation	L2_L3_Flex_Ext	L2_L3_Lat_Bending	L2_L3_axial_rotation	L1_L2_Flex_Ext	L1_L2_Lat_Bending	L1_L2_axial_rotation	L1_T12_Flex_Ext	L1_T12_Lat_Bending	L1_T12_axial_rotation	Abs_r3	Abs_r2	Abs_r1	Abs_t1	Abs_t2	neck_flexion	neck_bending	neck_rotation	arm_flex_r	arm_add_r	arm_rot_r	elbow_flex_r	pro_sup_r	wrist_flex_r	wrist_dev_r	arm_flex_l	arm_add_l	arm_rot_l	elbow_flex_l	pro_sup_l	wrist_flex_l	wrist_dev_l
2.266667	-1.380758	-1.201345	111.352232	0.241000	0.836927	0.802643	-5.945009	1.028806	-3.950048	12.941319	0.225869	26.996164	-13.609064	0.000000	-4.119874	-1.081272	8.085840	10.981945	0.191671	32.854832	3.206157	0.000000	-0.696636	-1.710003	-0.302054	-1.293723	-2.274304	-0.320933	-1.144504	-4.157702	-0.320933	-0.796185	-4.157702	-0.264298	-0.646896	-3.487039	-0.245419	-0.398058	-2.648795	-0.226541	-4.976002	-19.343899	-1.679936	0.000000	0.000000	-15.671937	-15.278417	0.347823	43.768421	7.950115	17.345674	147.774360	60.167251	-19.425135	23.217665	19.096519	26.198167	54.421868	149.950548	89.769677	-54.348836	-24.765570
2.283333	-2.089568	-1.479306	111.529075	0.243257	0.836194	0.801435	-5.953836	0.443252	-3.878591	13.038795	0.227570	27.263784	-14.120681	0.000000	-4.096871	-0.491926	7.889721	11.008292	0.192131	32.785156	3.760391	0.000000	-0.703058	-1.826419	-0.364016	-1.305648	-2.429137	-0.386767	-1.155053	-4.440755	-0.386767	-0.803524	-4.440755	-0.318514	-0.652859	-3.724434	-0.295763	-0.401727	-2.829123	-0.273012	-5.021870	-20.660816	-2.024548	0.000000	0.000000	-14.920035	-14.900387	0.553393	44.185928	8.821278	17.228101	147.658676	63.524381	-18.408151	24.472313	22.676530	26.583045	53.161836	149.948798	89.758530	-57.170593	-24.751989
2.300000	-2.845406	-1.750934	111.696805	0.245732	0.835420	0.800221	-5.972879	-0.176752	-3.802070	13.161591	0.229713	27.555360	-14.647052	0.000000	-4.075850	0.130637	7.658514	11.069006	0.193191	32.746461	4.338965	0.000000	-0.712392	-1.949751	-0.411306	-1.322983	-2.593168	-0.437012	-1.170389	-4.740623	-0.437012	-0.814193	-4.740623	-0.359893	-0.661527	-3.975931	-0.334186	-0.407061	-3.020164	-0.308479	-5.088544	-22.055968	-2.287559	0.000000	0.000000	-14.184019	-14.487749	0.694349	44.670024	9.631970	17.058663	147.584022	66.505531	-17.567875	25.624118	26.653840	27.031054	51.866203	149.946884	89.746084	-60.523864	-24.736693
2.316667	-3.590181	-1.994214	111.832130	0.248230	0.834675	0.799115	-6.001584	-0.784343	-3.704552	13.299180	0.232114	27.838582	-15.167767	0.000000	-4.056834	0.739596	7.386515	11.166429	0.194891	32.745960	4.910774	0.000000	-0.724066	-2.069556	-0.436427	-1.344662	-2.752509	-0.463703	-1.189567	-5.031918	-0.463703	-0.827535	-5.031918	-0.381873	-0.672367	-4.220238	-0.354597	-0.413731	-3.205742	-0.327320	-5.171928	-23.411229	-2.427275	0.000000	0.000000	-13.515900	-14.086365	0.763278	45.200992	10.305064	16.871825	147.559784	69.190119	-16.892832	26.641021	30.701758	27.486813	50.577865	149.944987	89.732522	-64.026633	-24.720018
2.333333	-4.238855	-2.191721	111.918092	0.250469	0.834028	0.798209	-6.031904	-1.313134	-3.596512	13.436283	0.234507	28.074597	-15.623141	0.000000	-4.032194	1.268861	7.100459	11.295780	0.197149	32.778260	5.411943	0.000000	-0.734951	-2.171918	-0.439967	-1.364877	-2.888651	-0.467465	-1.207451	-5.280802	-0.467465	-0.839975	-5.280802	-0.384971	-0.682475	-4.428976	-0.357473	-0.419951	-3.364301	-0.329975	-5.249681	-24.569174	-2.446963	0.000000	0.000000	-12.952600	-13.764865	0.794281	45.739429	10.775654	16.705406	147.589040	71.498180	-16.340482	27.494641	34.343560	27.867299	49.311508	149.943332	89.718097	-67.068160	-24.702516
2.350000	-4.714079	-2.337650	111.967380	0.252107	0.833482	0.797491	-6.055130	-1.706876	-3.543626	13.556355	0.236603	28.255562	-15.915832	0.000000	-3.991127	1.663684	6.897075	11.447245	0.199792	32.840213	5.727819	0.000000	-0.741167	-2.246892	-0.446135	-1.376420	-2.988366	-0.474018	-1.217663	-5.463093	-0.474018	-0.847079	-5.463093	-0.390368	-0.688247	-4.581862	-0.362485	-0.423503	-3.480436	-0.334601	-5.294078	-25.417293	-2.481268	0.000000	0.000000	-12.483198	-13.516513	0.896830	46.276621	11.043086	16.620816	147.675512	73.411147	-15.958388	28.208436	37.028172	28.187280	48.292939	149.942183	89.704854	-69.259500	-24.687450
2.366667	-4.981065	-2.461938	111.969671	0.253022	0.832930	0.796804	-6.044692	-1.943930	-3.502110	13.643074	0.238117	28.376714	-16.082171	0.000000	-3.908703	1.906352	6.776998	11.611503	0.202659	32.949905	5.851381	0.000000	-0.735640	-2.294186	-0.480316	-1.366158	-3.051267	-0.510335	-1.208584	-5.578084	-0.510335	-0.840763	-5.578084	-0.420276	-0.683116	-4.678304	-0.390256	-0.420345	-3.553694	-0.360237	-5.254606	-25.952291	-2.671371	0.000000	0.000000	-12.059774	-13.379303	1.133398	46.783378	11.172161	16.658384	147.812217	74.864594	-15.735979	28.752509	38.236806	28.513292	47.860583	149.941672	89.693963	-70.173631	-24.676870
2.383333	-5.037700	-2.516725	111.935730	0.253236	0.832498	0.796348	-6.030864	-2.006867	-3.483229	13.699820	0.239107	28.426686	-16.116084	0.000000	-3.813753	1.984677	6.799536	11.798274	0.205919	33.080529	5.707962	0.000000	-0.725818	-2.308425	-0.506109	-1.347917	-3.070205	-0.537741	-1.192447	-5.612704	-0.537741	-0.829538	-5.612704	-0.442845	-0.673995	-4.707339	-0.411213	-0.414733	-3.575750	-0.379582	-5.184448	-26.113361	-2.814826	0.000000	0.000000	-11.797099	-13.342713	1.345998	47.224069	11.073349	16.713198	147.999605	75.845011	-15.670770	29.123300	38.230838	28.790216	47.872994	149.941776	89.687176	-70.082969	-24.671137
2.400000	-4.910469	-2.449666	111.873501	0.252870	0.832341	0.796362	-6.053610	-1.899646	-3.490221	13.731226	0.239655	28.391045	-16.029157	0.000000	-3.742989	1.904556	6.973475	12.021194	0.209809	33.206553	5.294136	0.000000	-0.721755	-2.286796	-0.476258	-1.340371	-3.041438	-0.506024	-1.185771	-5.560115	-0.506024	-0.824894	-5.560115	-0.416726	-0.670222	-4.663234	-0.386960	-0.412411	-3.542246	-0.357193	-5.155423	-25.868689	-2.648804	0.000000	0.000000	-11.826857	-13.373039	1.361498	47.564907	10.642493	16.682242	148.232881	76.297275	-15.779771	29.270888	37.535704	28.936134	48.050069	149.942315	89.685903	-69.473000	-24.669560
